<svg xmlns="http://www.w3.org/2000/svg" width="30.722" height="30.735" viewBox="0 0 30.722 30.735"><g opacity="0.63"><path d="M13.005-239.705a15.731,15.731,0,0,0-2.293.564,15.347,15.347,0,0,0-8.866,21.679,15.38,15.38,0,0,0,18.386,7.534A15.462,15.462,0,0,0,30.648-222.19,15.4,15.4,0,0,0,13.005-239.705Zm8,6.56a4.538,4.538,0,0,1,3.075,3.139c.282.884.295,1.1.295,5.471s-.013,4.587-.295,5.471a4.508,4.508,0,0,1-3.139,3.139c-.884.282-1.1.295-5.471.295s-4.587-.013-5.471-.295A4.5,4.5,0,0,1,6.868-219c-.269-.794-.295-1.166-.346-4.8-.077-5.65.141-6.8,1.5-8.175a4.951,4.951,0,0,1,2.96-1.4c.384-.064,2.614-.09,4.933-.077C19.886-233.427,20.193-233.4,21-233.145Z" transform="translate(-0.103 239.897)" fill="#fafafa"/><path d="M65.154-176.846a3.1,3.1,0,0,0-2.088,2.153,50.5,50.5,0,0,0,0,9.84,3.035,3.035,0,0,0,2.165,2.165,50.5,50.5,0,0,0,9.84,0,3.035,3.035,0,0,0,2.165-2.165,50.5,50.5,0,0,0,0-9.84,3.035,3.035,0,0,0-2.165-2.165A52.331,52.331,0,0,0,65.154-176.846Zm10.532,1.538a1.375,1.375,0,0,1,.308.628c.064.346.013.474-.308.807a.956.956,0,0,1-1.486.051.956.956,0,0,1,.051-1.486c.333-.32.461-.372.807-.308A1.375,1.375,0,0,1,75.686-175.308Zm-3.664,1.358a4.883,4.883,0,0,1,2.319,2.306,3.5,3.5,0,0,1,.359,1.871,3.5,3.5,0,0,1-.359,1.871,4.936,4.936,0,0,1-2.332,2.319,3.426,3.426,0,0,1-1.858.359,3.426,3.426,0,0,1-1.858-.359,4.936,4.936,0,0,1-2.332-2.319,3.5,3.5,0,0,1-.359-1.871,3.426,3.426,0,0,1,.359-1.858A4.572,4.572,0,0,1,72.021-173.95Z" transform="translate(-54.789 185.135)" fill="#fafafa"/><path d="M98.73-142.669a2.978,2.978,0,0,0,0,5.407,3.327,3.327,0,0,0,2.434,0,2.978,2.978,0,0,0,0-5.407A3.327,3.327,0,0,0,98.73-142.669Z" transform="translate(-84.585 155.328)" fill="#fafafa"/></g></svg>